<svg xmlns="http://www.w3.org/2000/svg" xmlns:xlink="http://www.w3.org/1999/xlink" version="1.1" width="95" height="86" viewBox="0 0 95 86">
<defs>
<clipPath id="clip_0">
<path transform="matrix(1,0,0,-1,0,86)" d="M61.9776 12.6911C62.5136 10.5701 54.8536 7.695098 53.2966 7.123098 49.3766 5.682098 47.1706 7.369098 45.7006 9.876098 45.1306 5.461098 42.2066 2.802098 38.2326 1.341098 32.5406-.7519019 27.3376 1.297098 25.5026 6.290098 24.9496 7.795098 23.3106 12.2511 23.3106 12.2511 22.0086 15.7951 20.9436 16.8671 19.6106 16.6811 17.4846 16.3271 16.3586 18.2301 18.3046 19.7371 22.2276 22.8251 24.3736 24.2831 27.6056 28.0931 28.1656 28.7251 28.6236 29.1381 29.0526 29.2961 31.0936 30.0461 32.1196 26.0951 33.1506 23.1231 33.7096 21.4381 36.1706 14.9071 36.1706 14.9071 37.4746 11.3621 38.8386 6.989098 41.4166 7.936098 44.1006 8.923098 44.1176 12.5251 43.3196 15.5231L41.9976 19.1211C40.6946 22.6651 39.6296 23.7371 38.2966 23.5501 36.1716 23.1971 35.0456 25.0991 36.9906 26.6061 40.9146 29.6941 43.0606 31.1531 46.2926 34.9631 46.8526 35.5951 47.3106 36.0071 47.7396 36.1651 49.7806 36.9161 50.8056 32.9651 51.8376 29.9931 52.6786 27.3751 53.9356 24.1191 56.1866 17.9971 57.7266 13.8091 61.3486 14.8981 61.9776 12.6911Z" fill-rule="evenodd"/>
</clipPath>
<clipPath id="clip_1">
<path transform="matrix(1,0,0,-1,0,86)" d="M15.3586-.8476085H63.5136V37.916105H15.3586Z"/>
</clipPath>
<clipPath id="clip_2">
<path transform="matrix(1,0,0,-1,0,86)" d="M70.7067 57.7858C71.6017 57.8828 72.5867 57.1448 72.4177 55.9188 71.3177 48.8008 64.9957 43.6498 57.0617 42.7908 47.8167 41.7898 39.4037 47.0348 38.4347 55.9828 37.3627 65.8838 45.5107 72.0158 54.5177 72.9908 64.5377 74.0758 68.8327 70.0758 69.7707 66.4358 71.6527 59.6388 63.7247 55.9438 57.8787 55.3108 56.2087 55.1298 54.6917 55.2078 53.6267 55.5758 55.9837 52.7518 58.8617 51.2538 62.5597 51.6538 65.4037 52.1428 68.0797 54.1828 69.4787 56.8688 69.7187 57.4378 70.2297 57.7338 70.7067 57.7858ZM50.5847 62.4878C50.8977 60.7108 51.4427 59.0198 52.2667 57.5398 52.7507 57.5328 53.2337 57.5238 53.7117 57.5758 56.6337 57.8918 58.8087 60.6628 58.1327 65.2358 57.8267 67.4958 56.3997 71.2038 53.5367 70.8938 50.7067 70.2858 50.0967 65.3308 50.5847 62.4878Z" fill-rule="evenodd"/>
</clipPath>
<clipPath id="clip_3">
<path transform="matrix(1,0,0,-1,0,86)" d="M36.3627 40.7898H73.5867V75.0758H36.3627Z"/>
</clipPath>
<clipPath id="clip_4">
<path transform="matrix(1,0,0,-1,0,86)" d="M40.089 39.7438C40.695 37.6008 32.902 34.6328 31.271 34.0248 29.641 33.4178 21.595 30.6108 20.524 32.4518 19.349 34.5758 23.116 36.4918 21.545 40.7088L19.428 46.3868C18.046 50.0968 16.925 51.2168 15.527 51.0158 13.3 50.6338 12.131 52.5668 14.164 54.1568 18.265 57.4138 19.771 58.8718 22.059 62.3498 22.602 63.1278 23.08 63.5628 23.586 63.7508 25.104 64.3168 26.441 62.4458 27.751 60.3088 28.189 68.9248 32.761 79.3358 45.131 84.9698 45.469 85.0958 45.729 85.2578 46.01 85.3618 50.001 86.8498 52.969 85.5868 53.891 83.1128 54.723 81.0538 53.812 78.3448 51.113 77.3398 50.888 77.2558 50.607 77.1508 50.305 77.1018 47.818 76.5598 46.499 77.3488 43.857 76.3648 43.182 76.1128 42.416 75.7628 41.523 75.2378 35.084 71.5578 28.534 62.3298 32.643 49.0708 33.041 48.0028 33.524 46.7088 34.026 45.3598 35.661 40.9748 39.454 42.1328 40.089 39.7438Z" fill-rule="evenodd"/>
</clipPath>
<clipPath id="clip_5">
<path transform="matrix(1,0,0,-1,0,86)" d="M11.131 29.6108H55.723V87.15239H11.131Z"/>
</clipPath>
<clipPath id="clip_6">
<path transform="matrix(1,0,0,-1,0,86)" d="M92.9473 34.46C97.2823 27 87.7923 19.158 82.2943 15.749 74.7013 11.042 68.0833 10.492 65.5403 13.191 63.7383 15.045 63.7733 17.677 66.0153 19.792 66.2963 20.039 66.5783 20.286 66.8393 20.448 69.0393 21.812 71.4913 21.012 73.7003 19.555 76.8793 17.467 79.5413 16.798 82.8923 18.876 85.3013 20.369 85.9683 22.45 85.1563 23.759 83.8253 25.906 78.6763 24.742 76.8723 24.494 75.9963 24.386 72.3253 23.994 70.2473 23.721 67.6013 23.313 60.4023 22.764 58.0263 28.467 55.1573 35.315 63.8593 41.508 68.6763 44.494 76.2413 48.894 81.3783 48.092 82.8673 46.043 83.9653 44.621 83.6903 42.493 81.5433 41.162 81.3863 41.065 81.2293 40.968 81.0723 40.87 77.9773 39.315 75.7903 41.439 74.0763 42.332 72.2123 43.351 70.7233 43.298 69.1523 42.324 67.7913 41.481 66.1133 39.86 67.1843 38.132 67.8333 37.085 69.1713 36.682 71.2493 36.955 72.4833 37.068 79.2133 37.905 82.3163 38.162 84.6483 38.376 90.4103 38.904 92.9473 34.46Z" fill-rule="evenodd"/>
</clipPath>
<clipPath id="clip_7">
<path transform="matrix(1,0,0,-1,0,86)" d="M54.1573 9.491998H96V49.893999H54.1573Z"/>
</clipPath>
<clipPath id="clip_8">
<path transform="matrix(1,0,0,-1,0,86)" d="M84.2578 52.2682C85.3998 63.7502 81.0198 69.9522 75.2228 73.0962 74.4188 73.5452 73.7318 73.8412 73.1258 74.0512 70.7578 74.8742 69.6018 74.1472 67.3798 74.5802 67.1108 74.6172 66.8588 74.7052 66.6568 74.7752 64.2378 75.6162 63.3748 78.0052 64.0738 79.8522 64.8448 82.0692 67.4578 83.2512 71.0348 82.0072 71.2868 81.9192 71.5208 81.7812 71.8238 81.6762 82.9318 76.9122 87.1998 67.7472 87.7608 60.0972L84.2578 52.2682Z" fill-rule="evenodd"/>
</clipPath>
<clipPath id="clip_9">
<path transform="matrix(1,0,0,-1,0,86)" d="M62.3748 51.2682H88.7608V84.251209H62.3748Z"/>
</clipPath>
<clipPath id="clip_10">
<path transform="matrix(1,0,0,-1,0,86)" d="M76.7937 62.6568C84.1217 58.2248 83.9567 50.2498 83.9567 50.2498 83.9567 50.2498 87.7197 58.1658 94.3567 59.1778L76.7937 62.6568Z" fill-rule="evenodd"/>
</clipPath>
<clipPath id="clip_11">
<path transform="matrix(1,0,0,-1,0,86)" d="M75.7937 49.2498H95.356708V63.6568H75.7937Z"/>
</clipPath>
<clipPath id="clip_12">
<path transform="matrix(1,0,0,-1,0,86)" d="M10.2478 43.7062C7.5338 35.8182 8.5458 31.1712 10.8318 28.5372 11.1468 28.1642 11.4328 27.9052 11.6928 27.7122 12.7138 26.9562 13.4228 27.3732 14.4438 26.9002 14.5708 26.8532 14.6788 26.7722 14.7658 26.7082 15.8078 25.9372 15.7898 24.2102 15.0978 22.9812 14.2998 21.5002 12.7838 20.8822 11.2418 22.0232 11.1338 22.1032 11.0428 22.2172 10.9128 22.3142 6.2958 26.4842 5.8928 33.1812 7.0458 38.5382L10.2478 43.7062Z" fill-rule="evenodd"/>
</clipPath>
<clipPath id="clip_13">
<path transform="matrix(1,0,0,-1,0,86)" d="M4.8928 19.8822H16.8078V44.7062H4.8928Z"/>
</clipPath>
<clipPath id="clip_14">
<path transform="matrix(1,0,0,-1,0,86)" d="M16.39 31.5271C10.197 37.4431 12.088 45.1931 12.088 45.1931 12.088 45.1931 6.698 38.2811 0 38.7331L16.39 31.5271Z" fill-rule="evenodd"/>
</clipPath>
<clipPath id="clip_15">
<path transform="matrix(1,0,0,-1,0,86)" d="M-1 30.5271H17.39V46.1931H-1Z"/>
</clipPath>
</defs>
<g clip-path="url(#clip_0)">
<g clip-path="url(#clip_1)">
<path transform="matrix(1,0,0,-1,0,86)" d="M15.3586 37.9161H63.5136V-1H15.3586Z" fill="#01a3dd"/>
</g>
</g>
<g clip-path="url(#clip_2)">
<g clip-path="url(#clip_3)">
<path transform="matrix(1,0,0,-1,0,86)" d="M36.3627 75.0758H73.5867V40.7898H36.3627Z" fill="#01a3dd"/>
</g>
</g>
<g clip-path="url(#clip_4)">
<g clip-path="url(#clip_5)">
<path transform="matrix(1,0,0,-1,0,86)" d="M11.131 87H55.723V29.6108H11.131Z" fill="#01a3dd"/>
</g>
</g>
<g clip-path="url(#clip_6)">
<g clip-path="url(#clip_7)">
<path transform="matrix(1,0,0,-1,0,86)" d="M54.1573 49.894H96V9.492001H54.1573Z" fill="#01a3dd"/>
</g>
</g>
<g clip-path="url(#clip_8)">
<g clip-path="url(#clip_9)">
<path transform="matrix(1,0,0,-1,0,86)" d="M62.3748 84.2512H88.7608V51.2682H62.3748Z" fill="#01a3dd"/>
</g>
</g>
<g clip-path="url(#clip_10)">
<g clip-path="url(#clip_11)">
<path transform="matrix(1,0,0,-1,0,86)" d="M75.7937 63.6568H95.3567V49.2498H75.7937Z" fill="#01a3dd"/>
</g>
</g>
<g clip-path="url(#clip_12)">
<g clip-path="url(#clip_13)">
<path transform="matrix(1,0,0,-1,0,86)" d="M4.8928 44.7062H16.8078V19.8822H4.8928Z" fill="#01a3dd"/>
</g>
</g>
<g clip-path="url(#clip_14)">
<g clip-path="url(#clip_15)">
<path transform="matrix(1,0,0,-1,0,86)" d="M-1 46.1931H17.39V30.5271H-1Z" fill="#01a3dd"/>
</g>
</g>
</svg>
